<svg width="18" height="18" viewBox="0 0 18 18" fill="none" xmlns="http://www.w3.org/2000/svg">
<rect x="0.700195" y="0.799988" width="16.5" height="16.5" rx="2" stroke="#1A68FF"/>
<path d="M12.2329 6.44893L12.5888 6.09779L12.5883 6.09731L12.2329 6.44893ZM12.2329 13.35L11.8771 12.9987L11.8769 12.9989L12.2329 13.35ZM5.41 13.3511L5.05405 13.7022L5.05425 13.7024L5.41 13.3511ZM5.41 6.44893L5.05452 6.09731L5.05425 6.09759L5.41 6.44893ZM8.96362 3.14376L8.60814 3.49537L8.96362 3.14376ZM8.67924 3.14376L9.03472 3.49537L8.67924 3.14376ZM8.60814 3.49537L11.8774 6.80054L12.5883 6.09731L9.3191 2.79214L8.60814 3.49537ZM11.8769 6.80007C12.7185 7.65324 13.1429 8.79468 13.1429 9.88929H14.1429C14.1429 8.54532 13.6243 7.14748 12.5888 6.09779L11.8769 6.80007ZM13.1429 9.88929C13.1429 10.9884 12.7181 12.1471 11.8771 12.9987L12.5886 13.7013C13.6269 12.65 14.1429 11.2331 14.1429 9.88929H13.1429ZM11.8769 12.9989C11.0325 13.8548 9.9274 14.2857 8.82143 14.2857V15.2857C10.1883 15.2857 11.5518 14.7523 12.5888 13.7011L11.8769 12.9989ZM8.82143 14.2857C7.71643 14.2857 6.61021 13.8548 5.76575 12.9997L5.05425 13.7024C6.09122 14.7524 7.45571 15.2857 8.82143 15.2857V14.2857ZM5.76595 12.9999C4.92569 12.1482 4.5 10.9892 4.5 9.89036H3.5C3.5 11.2344 4.01716 12.6511 5.05405 13.7022L5.76595 12.9999ZM4.5 9.89036C4.5 8.79437 4.92344 7.65314 5.76575 6.80027L5.05425 6.09759C4.01727 7.14757 3.5 8.54563 3.5 9.89036H4.5ZM5.76548 6.80054L9.03472 3.49537L8.32376 2.79214L5.05452 6.09731L5.76548 6.80054ZM9.3191 2.79214C9.04513 2.51516 8.59773 2.51516 8.32376 2.79214L9.03472 3.49537C8.9173 3.61408 8.72556 3.61408 8.60814 3.49537L9.3191 2.79214Z" fill="#1A68FF"/>
<path d="M9.24342 6.58879L6.82027 9.39382C6.63789 9.60477 6.66658 9.91821 6.88379 10.0943C6.97601 10.17 7.09281 10.2108 7.21269 10.2108H8.54158L7.8715 12.173C7.82744 12.3033 7.90018 12.4446 8.0344 12.4874C8.13686 12.5203 8.24957 12.4874 8.31719 12.4048L10.5918 9.57194C10.766 9.35601 10.726 9.04257 10.5026 8.87441C10.4125 8.80575 10.3018 8.76893 10.1881 8.76893H9.00879L9.68194 6.82859C9.72702 6.69824 9.6553 6.55694 9.52108 6.51316C9.42067 6.48033 9.31104 6.51018 9.24342 6.58879Z" fill="#1A68FF"/>
</svg>
