<svg width="114" height="63" viewBox="0 0 114 63" fill="none" xmlns="http://www.w3.org/2000/svg">
<path d="M33.0838 62.5879C31.5158 62.5879 27.2218 62.7659 24.4948 62.7659C23.6098 62.7659 23.1348 62.5879 23.1348 62.1749C23.1348 61.8859 23.4058 61.7089 24.2228 61.7089C25.0458 61.7107 25.8671 61.632 26.6748 61.4739C28.0348 61.2419 28.4508 59.9489 28.6558 58.2559C28.987 54.1063 29.1012 49.9423 28.9978 45.7809V28.2559H37.4848V45.7859C37.3827 49.9666 37.4968 54.1499 37.8268 58.3189C38.0398 59.9569 38.4488 61.2499 40.4918 61.4809C41.6461 61.621 42.8071 61.6994 43.9698 61.7159C44.7378 61.7159 45.0798 61.8849 45.0798 62.1739C45.0798 62.5869 44.5338 62.7649 43.7798 62.7649C39.3018 62.7659 34.9938 62.5879 33.0838 62.5879ZM48.0648 62.5789V40.9559H51.0278V42.9899C51.5862 42.3332 52.2608 41.7851 53.0178 41.3729C54.4323 40.6513 56.0325 40.3761 57.6069 40.5836C59.1812 40.7911 60.6555 41.4715 61.8348 42.5349C62.5781 43.2925 63.1533 44.1983 63.5229 45.1932C63.8925 46.1881 64.0482 47.2497 63.9798 48.3089C63.9798 51.6849 62.9508 54.0965 60.8928 55.5439C59.5587 56.4717 57.9654 56.9537 56.3408 56.9209C55.1549 56.961 53.9783 56.6999 52.9208 56.1619C52.2455 55.765 51.6356 55.2661 51.1128 54.6829V62.5829L48.0648 62.5789ZM51.6488 45.4889C51.1981 46.6656 50.987 47.9205 51.0278 49.1799C50.9979 50.2368 51.2103 51.2866 51.6488 52.2489C52.0354 53.0369 52.6522 53.689 53.4175 54.1188C54.1828 54.5486 55.0607 54.7359 55.9348 54.6559C56.5957 54.6708 57.2519 54.5415 57.8578 54.2769C58.4636 54.0123 59.0045 53.6188 59.4428 53.1239C60.4683 51.8242 60.968 50.1867 60.8428 48.5359C60.8693 47.4372 60.6585 46.3457 60.2248 45.3359C59.8672 44.5133 59.2615 43.8231 58.4922 43.3619C57.723 42.9007 56.8288 42.6916 55.9348 42.7639C55.0227 42.6996 54.114 42.9297 53.3424 43.4202C52.5707 43.9107 51.9778 44.6357 51.6488 45.4889ZM68.2688 55.6239C67.7673 55.2383 67.3623 54.7415 67.0857 54.1726C66.809 53.6037 66.6684 52.9784 66.6748 52.3459C66.6445 51.7036 66.7716 51.0636 67.0448 50.4815C67.3181 49.8995 67.7293 49.3929 68.2428 49.0059C69.4545 48.155 70.8749 47.65 72.3518 47.5449L77.2018 47.0119C77.4813 47.0149 77.7571 46.9477 78.004 46.8165C78.2509 46.6853 78.4609 46.4942 78.6148 46.2609C78.7708 45.9566 78.8427 45.6162 78.8228 45.2749C78.8452 44.8832 78.7525 44.4936 78.5559 44.1542C78.3593 43.8147 78.0676 43.5403 77.7168 43.3649C76.7281 42.9124 75.6445 42.7066 74.5588 42.7649C73.9525 42.7041 73.3401 42.7697 72.7605 42.9575C72.1808 43.1452 71.6463 43.4511 71.1908 43.8559C70.7757 44.3616 70.5233 44.9811 70.4668 45.6329H67.6348C67.5851 44.8301 67.7619 44.0295 68.145 43.3223C68.5281 42.6151 69.1022 42.0297 69.8018 41.6329C71.2883 40.8652 72.943 40.4805 74.6158 40.5139C76.4016 40.4408 78.1782 40.8069 79.7898 41.5799C80.4007 41.872 80.9131 42.3361 81.2643 42.9151C81.6154 43.4942 81.7901 44.1631 81.7668 44.8399V53.7229C81.7476 53.8541 81.7614 53.9881 81.8068 54.1127C81.8523 54.2373 81.928 54.3486 82.0272 54.4367C82.1263 54.5247 82.2459 54.5868 82.375 54.6172C82.5041 54.6476 82.6387 54.6454 82.7668 54.6109H83.2108C83.391 54.5999 83.5703 54.5779 83.7478 54.5449V56.4859C83.3923 56.5806 83.0317 56.6547 82.6678 56.7079C82.3316 56.7423 81.9937 56.7573 81.6558 56.7529C81.2268 56.7898 80.7954 56.7213 80.399 56.5533C80.0027 56.3853 79.6534 56.1228 79.3818 55.7889C79.0972 55.3533 78.9178 54.8576 78.8578 54.3409C78.1101 55.1317 77.2012 55.7527 76.1928 56.1619C74.9863 56.684 73.6833 56.9457 72.3688 56.9299C72.2788 56.9339 72.1891 56.9359 72.0998 56.9359C70.7121 56.9358 69.3639 56.4739 68.2678 55.6229L68.2688 55.6239ZM77.2888 49.0559C76.7234 49.1942 76.149 49.2921 75.5698 49.3489L73.7348 49.5309C72.8802 49.5824 72.04 49.7743 71.2478 50.0989C70.8189 50.2693 70.453 50.5679 70.2001 50.9539C69.9472 51.3399 69.8197 51.7946 69.8348 52.2559C69.8264 52.608 69.9107 52.9562 70.0792 53.2656C70.2477 53.575 70.4944 53.8348 70.7948 54.0189C71.4731 54.4594 72.2692 54.684 73.0778 54.6629C74.1453 54.6655 75.2024 54.454 76.1868 54.0409C76.9251 53.8219 77.5719 53.3683 78.0295 52.7489C78.4871 52.1295 78.7304 51.3779 78.7228 50.6079V48.5129C78.2726 48.7602 77.7899 48.943 77.2888 49.0559ZM109.253 56.3889L103.612 48.4889L101.135 50.5559V56.3829H98.2208V40.0829H101.135V47.4559L108.85 40.8739H112.709L105.835 46.6299L113.119 56.3869L109.253 56.3889ZM86.8238 56.3889L86.8148 40.8709H89.7148V43.5089C90.1627 42.7595 90.7688 42.1168 91.4908 41.6259C92.3917 40.8924 93.5221 40.4995 94.6838 40.5159H94.9728L95.6728 40.5869V43.2869C95.5074 43.2547 95.3405 43.231 95.1728 43.2159H94.6728C94.0248 43.1779 93.3758 43.2717 92.7651 43.4918C92.1544 43.7118 91.5947 44.0533 91.1198 44.4959C90.7269 44.878 90.4148 45.3351 90.2019 45.8401C89.9891 46.3452 89.8799 46.8878 89.8808 47.4359V56.3939L86.8238 56.3889Z" fill="#605E5E"/>
<path d="M10.126 37.579C8.749 38.019 0 34.554 1.145 33.479C1.014 33.132 1.039 33.197 1.145 33.262C1.272 33.34 1.517 33.419 1.745 32.781C1.13486 32.511 0.55075 32.1856 0 31.809H10.113C10.113 31.809 18.556 29.699 22.771 28.029L22.671 27.612C23.497 27.883 29.338 25.995 30.159 24.774L29.768 24.574C30.798 24.174 30.668 25.058 31.243 25.293C32.384 24.569 34.063 22.184 36.306 22.97C36.83 21.509 38.563 20.887 40.306 20.487C41.438 19.799 42.589 19.666 43.561 18.546C43.961 19.035 44.525 17.765 45.061 17.631C46.1 17.12 46.802 16.476 47.801 16.476C47.894 16.289 47.774 16.24 47.69 16.152C47.6665 16.1564 47.6425 16.1564 47.619 16.152C47.7925 16.084 47.9796 16.0583 48.165 16.077L48.25 15.69C48.587 16.112 49.125 15.561 49.475 15.499C49.4283 15.54 49.3907 15.5905 49.3647 15.647C49.3386 15.7035 49.3248 15.7648 49.324 15.827L49.537 15.779C49.6661 15.6894 49.7732 15.5717 49.8501 15.4346C49.927 15.2976 49.9718 15.1449 49.981 14.988L50.3 15.308C50.434 15.65 50.958 15.228 51.273 15.073L51.126 14.451C51.267 14.738 51.495 14.558 51.739 14.378C51.955 14.219 52.184 14.059 52.378 14.224L52.462 13.833C52.489 13.933 52.635 13.882 52.707 13.882L52.76 13.66C52.887 13.793 53.17 13.672 53.451 13.551C53.806 13.397 54.157 13.244 54.182 13.607L54.692 12.923L55.305 13.07C55.4014 12.9954 55.4798 12.9 55.5344 12.7909C55.5889 12.6819 55.6182 12.5619 55.62 12.44L56.375 12.511C56.4155 12.3794 56.4848 12.2584 56.5779 12.1568C56.6709 12.0553 56.7854 11.9757 56.9129 11.9238C57.0405 11.8719 57.178 11.8491 57.3156 11.8569C57.4531 11.8647 57.5871 11.903 57.708 11.969V11.601L57.926 11.552L57.877 11.774C58.001 11.903 58.335 11.699 58.534 11.699C58.6828 11.6738 58.825 11.6191 58.9524 11.5382C59.0798 11.4574 59.1898 11.3519 59.276 11.228C59.322 11.406 59.486 11.389 59.648 11.371C59.7279 11.3551 59.8101 11.3551 59.89 11.371L59.921 10.856C60.192 11.167 60.431 10.978 60.676 10.789C60.921 10.6 61.16 10.419 61.444 10.705L61.351 10.762C61.7445 10.7184 62.1338 10.6428 62.515 10.536L61.733 11.424L61.533 11.276C61.069 11.388 60.259 11.55 59.798 11.64C58.7567 12.3737 57.6657 13.0343 56.533 13.617L56.977 13.857C55.396 13.768 56.799 14.931 56.391 15.047C56.291 14.825 55.619 14.376 55.57 13.99C55.348 14.061 55.148 14.328 54.939 14.55C55.21 14.75 55.33 14.994 54.939 15.438C54.469 15.62 54.189 15.238 53.904 15.149L53.234 16.349L53.18 16.113C52.78 16.913 50.267 15.905 51 17.53C50.8749 17.5574 50.7453 17.5582 50.6199 17.5321C50.4945 17.5061 50.3759 17.4539 50.272 17.379C50.103 17.534 49.943 17.752 49.783 17.89C49.703 17.79 49.628 17.663 49.424 17.79L49.388 17.958L49.255 18.029L49.122 18.722C49.2933 18.7534 49.4669 18.7714 49.641 18.776C50.054 18.425 50.432 17.696 50.698 18.332C50.3637 18.4216 50.0487 18.5721 49.769 18.776C50.349 18.7611 50.9189 18.6202 51.439 18.363C51.8556 18.1608 52.2355 17.8904 52.563 17.563C52.6322 17.6695 52.6873 17.7844 52.727 17.905C52.7598 17.9582 52.7739 18.0209 52.767 18.083C52.767 18.283 52.687 18.518 52.767 18.616C52.6118 18.5482 52.4411 18.5235 52.273 18.5447C52.1049 18.5658 51.9456 18.6319 51.812 18.736L51.912 19.113C51.612 19.379 51.459 19.306 51.293 19.233C51.1991 19.1792 51.0907 19.1563 50.983 19.1674C50.8754 19.1786 50.7739 19.2232 50.693 19.295L50.648 19.739C50.577 19.601 50.448 19.601 50.289 19.601V19.7L49.818 19.767C49.418 20.335 50.518 20.011 50.005 20.335C48.899 20.708 47.451 21.952 46.816 21.787C46.7001 21.8725 46.5889 21.9643 46.483 22.062L47.198 22.362L47.385 22.087L48.078 22.42C47.665 21.056 50.458 21.092 51.969 20.141L52.269 20.288C52.651 20.111 52.495 19.822 52.438 19.588C53.02 19.441 53.908 19.557 54.245 19.144L54.192 18.9C54.502 19.41 55.569 19.135 56.412 19.024L56.457 18.136C56.6428 18.2299 56.8456 18.2855 57.0533 18.2992C57.2611 18.3129 57.4695 18.2846 57.666 18.216C57.8955 18.1627 58.1304 18.1358 58.366 18.136C58.89 17.812 58.366 17.399 58.446 17.012C58.677 17.971 59.881 17.185 60.555 16.712C60.848 16.468 60.71 16.263 60.644 16.024L61.425 16.348C61.07 14.548 64.09 15.904 64.09 14.429C67.457 12.906 69.717 11.107 73.39 10.459C73.654 9.927 73.709 9.723 74.239 9.477C74.0959 8.49937 74.066 7.50848 74.15 6.524C74.207 5.446 74.92 4.098 74.789 3.118C74.423 3.118 74.032 3.145 73.622 3.179L73.981 3.654C74.27 4.324 72.071 4.382 73.004 3.161V3.081C72.529 3.281 72.116 3.143 71.671 3.436V3.536C71.418 3.558 71.653 3.296 71.613 3.168C71.263 3.274 70.428 3.843 70.259 3.368C69.513 4.074 68.798 3.63 68.331 3.63C67.989 3.972 67.274 3.901 66.701 4.145L66.679 4.136C66.421 4.172 66.998 3.91 66.759 3.777H66.808L66.838 3.746L67.2 3.38C67.062 3.167 66.685 3.216 66.379 3.38C66.515 3.049 66.648 3.1 66.795 3.152C66.942 3.204 67.089 3.252 67.268 2.962L67.619 3.069L67.748 2.851C67.8743 2.92029 68.0189 2.94892 68.1621 2.93299C68.3052 2.91706 68.44 2.85735 68.548 2.762C68.517 2.819 68.548 2.868 68.548 2.917C68.677 2.863 68.765 2.726 68.89 2.695L68.85 2.424L68.49 2.633L68.446 2.455L68.352 2.522L68.321 2.349C68.149 2.639 67.921 2.629 67.651 2.619C67.4869 2.60441 67.3214 2.61828 67.162 2.66V2.585C67.062 2.603 67.012 2.705 66.962 2.785C66.833 2.772 66.722 2.647 66.571 2.745L66.522 2.82C66.597 2.634 66.366 2.612 66.207 2.563L65.985 2.825C65.985 2.666 65.772 2.71 65.685 2.639C65.525 2.683 65.507 2.865 65.401 2.976C65.521 2.776 65.419 2.776 65.281 2.776C65.641 2.476 65.981 2.176 66.311 1.888C66.458 1.852 66.68 1.843 66.755 1.631L66.937 1.331C66.9303 1.36068 66.9305 1.39149 66.9375 1.42109C66.9445 1.4507 66.9581 1.47832 66.9774 1.50185C66.9967 1.52537 67.0211 1.54419 67.0488 1.55687C67.0764 1.56955 67.1066 1.57575 67.137 1.575L67.248 1.517C67.239 1.464 67.248 1.402 67.181 1.402C67.381 1.296 67.621 1.371 67.821 1.016L67.852 1.18C67.9325 1.10496 68.0252 1.0441 68.126 1L68.09 1.022C68.041 1.097 67.975 1.173 68.019 1.235C68.4372 0.956341 68.9185 0.786852 69.419 0.742C69.4708 0.71947 69.527 0.708938 69.5835 0.711189C69.6399 0.71344 69.6952 0.728417 69.745 0.755C69.895 0.809 70.037 0.864 70.174 0.617C70.5258 0.703263 70.8969 0.6618 71.221 0.5C71.5497 0.36345 71.9064 0.30789 72.261 0.338C72.4311 0.341118 72.6004 0.314032 72.761 0.258C73.018 0.187 73.267 0.116 73.411 0.258C73.6838 0.151039 73.9642 0.0647944 74.25 0C74.5343 0.160443 74.8528 0.250935 75.179 0.264C75.424 0.015 75.859 0.218 76.169 0.248C76.1929 0.367376 76.2505 0.477398 76.335 0.565C76.5343 0.592882 76.7197 0.6828 76.865 0.822C76.9421 0.903305 77.0352 0.967694 77.1385 1.01108C77.2418 1.05446 77.353 1.07589 77.465 1.074C77.51 1.305 78.238 1.127 77.909 1.518C78.229 1.518 78.233 2.011 78.593 2.074C78.569 2.367 78.693 2.755 78.393 2.988C78.3833 3.02652 78.3699 3.06402 78.353 3.1C78.939 3.735 78.211 5.28 78.653 5.956C78.5904 6.28354 78.5028 6.60581 78.391 6.92C78.662 7.253 78.279 7.84 78.342 8.284C78.489 9.114 77.782 9.918 78.071 10.66C77.609 10.86 78.115 11.242 77.96 11.548C77.813 12.148 77.898 12.578 77.453 13.129C77.524 13.191 77.604 13.129 77.693 13.089C77.6966 13.0739 77.7042 13.0601 77.715 13.049C77.7255 13.0067 77.7315 12.9635 77.733 12.92L77.746 12.903C77.782 12.956 77.755 13.003 77.71 13.067C77.7103 13.0613 77.7103 13.0557 77.71 13.05C77.6657 13.1611 77.6009 13.2629 77.519 13.35L77.705 13.426C77.292 13.59 77.405 13.91 77.292 14.11C77.292 14.035 77.221 14.01 77.159 14.01L77.097 14.125C77.0996 14.1993 77.1296 14.27 77.1814 14.3234C77.2331 14.3768 77.3028 14.4091 77.377 14.414L77.053 14.569C76.796 14.618 76.817 14.933 76.769 15.12L77.213 15.072C76.778 15.192 77.191 15.578 76.804 15.783L77.004 15.854C76.933 15.863 76.904 15.947 76.866 15.983L76.977 16.028C76.671 16.17 76.791 16.814 76.391 16.814L76.582 17.129L76.227 17.458C76.227 17.622 76.351 17.631 76.462 17.671L75.925 18.271L76.225 18.36L76.163 18.48L75.946 18.333L75.746 18.843L76.026 18.87L75.96 19L75.854 18.956C75.721 19.022 75.703 19.213 75.614 19.329C75.5648 19.3909 75.5343 19.4657 75.5264 19.5444C75.5184 19.6231 75.5332 19.7025 75.569 19.773C75.369 19.795 75.334 20.004 75.219 20.102L75.508 20.15C74.908 20.413 75.53 20.723 74.943 21.029C74.952 20.829 75.01 20.78 75.174 20.585C75.0961 19.6295 75.1754 18.6678 75.409 17.738C75.909 17.409 75.094 17.081 75.738 16.748L75.538 16.659C75.623 16.619 75.716 16.597 75.76 16.481C75.835 16.236 75.96 15.81 75.609 15.974C75.729 15.874 75.933 15.894 75.977 15.703C75.893 15.583 75.937 15.33 75.755 15.303L76.044 15.094C75.986 14.886 75.95 14.594 75.744 14.65L75.828 14.606C75.928 14.446 75.762 14.282 75.762 14.126C75.851 14.09 75.979 14.055 75.979 13.939L75.895 13.908C76.037 13.37 75.695 12.793 76.202 12.575L76.002 12.504L76.073 12.404L75.873 12.315L76.095 11.871L75.789 11.76C75.758 11.91 75.607 11.982 75.553 12.128C75.602 12.128 75.664 12.177 75.722 12.128C75.6245 12.2623 75.5665 12.4213 75.5546 12.5869C75.5428 12.7525 75.5776 12.9181 75.655 13.065L75.415 13.177L75.544 13.621C74.891 13.931 75.824 14.416 75.1 14.576C75.1994 14.4291 75.2524 14.2558 75.2524 14.0785C75.2524 13.9012 75.1994 13.7279 75.1 13.581L74.656 13.958V14.016C74.569 13.885 74.456 13.972 74.372 14.058C74.288 14.144 74.218 14.238 74.234 14.082C74.492 13.447 74.389 12.572 74.758 12.23C74.766 11.746 73.978 10.888 74.247 10.18C73.755 10.707 72.385 10.438 72.759 11.657L71.929 11.093C71.849 11.47 71.229 11.804 71.6 12.248C71.3317 12.2357 71.0643 12.2864 70.8191 12.396C70.5739 12.5055 70.3578 12.6709 70.188 12.879C70.01 13.212 69.379 13.488 69.464 13.843L69.864 14.03L69.589 14.319L68.838 13.751L67.505 14.808L68.54 15.108L68.265 15.392L67.257 14.85L66.413 16.76C66.2362 16.619 66.0279 16.5228 65.806 16.4794C65.584 16.4361 65.3549 16.4469 65.138 16.511L64.809 17.67L63.237 17.639C64.218 18.483 61.656 19.033 61.864 19.859L61.464 19.673C61.41 19.793 61.18 19.953 61.313 20.117L60.625 19.784C60.798 20.863 58.515 20.446 59.125 21.534L58.281 20.544C57.748 20.868 56.607 21.206 57.024 21.827L57.237 22.715C57.005 22.5463 56.7363 22.435 56.453 22.3902C56.1697 22.3453 55.8798 22.3682 55.607 22.457L55.332 22.741C55.545 22.841 55.732 22.995 55.989 22.896C55.576 23.385 54.23 23.572 54.572 24.633L53.884 24.309C53.7548 24.6232 53.5409 24.8953 53.266 25.095C53.2935 25.0586 53.3247 25.0251 53.359 24.995C53.293 24.759 53.328 24.511 52.951 24.431C52.04 26.043 50.388 26.403 48.639 27.451C47.939 28.175 45.439 27.551 45.839 28.784C42.593 29.059 41.465 31.555 38.231 32.257C36.503 32.688 31.898 35.193 30.903 35.757C29.387 35.716 28.019 36.31 25.903 36.902C21.896 37.969 17.7328 38.324 13.603 37.951C13.0236 37.8152 12.4189 37.8321 11.848 38C11.4882 38.081 11.1223 38.1315 10.754 38.151C10.349 38.153 10.087 38.021 10.126 37.579ZM45.417 23.046L45.59 22.886L45.417 23.046ZM49.552 19.813L49.694 19.857C49.7295 19.8376 49.76 19.8102 49.783 19.777L49.552 19.813ZM50.267 19.24C50.542 19.466 50.804 19.022 51.075 18.72C50.685 18.8 50.365 18.934 50.268 19.24H50.267ZM56.591 12.529H56.76V12.445H56.738C56.6879 12.4704 56.6391 12.4984 56.592 12.529H56.591ZM56.848 12.418V12.427L56.937 12.396L56.848 12.418ZM57.594 12.152L57.714 12.107V12.053C57.6801 12.0905 57.6418 12.1237 57.6 12.152H57.594ZM60.634 10.927L60.783 10.905C60.743 10.905 60.703 10.903 60.663 10.899L60.634 10.927ZM74.391 9.944C74.4133 9.91648 74.437 9.89011 74.462 9.865C74.4453 9.85524 74.4299 9.84348 74.416 9.83C74.4115 9.86857 74.4038 9.9067 74.393 9.944H74.391ZM52.852 25.333C53.0074 25.2731 53.1561 25.1974 53.296 25.107C53.2532 25.1848 53.188 25.248 53.1088 25.2883C53.0296 25.3286 52.9401 25.3442 52.852 25.333ZM50.583 19.755C50.5928 19.7629 50.6015 19.7719 50.609 19.782L50.583 20.008V19.755ZM75.721 19.4L75.708 19.369C75.7171 19.3693 75.7259 19.3724 75.733 19.378C75.7402 19.3836 75.7455 19.3913 75.748 19.4C75.748 19.41 75.748 19.413 75.748 19.413C75.7405 19.4061 75.7311 19.4015 75.721 19.4V19.4ZM74.4 18.844L74.356 18.685L74.506 18.614V18.636C74.493 18.695 74.411 18.775 74.4 18.844L74.418 18.911C74.4098 18.9021 74.4039 18.8914 74.4008 18.8797C74.3977 18.868 74.3974 18.8558 74.4 18.844V18.844ZM73.836 17.844L74.125 17.893L73.925 18.252C73.9058 18.1144 73.8767 17.9784 73.838 17.845L73.836 17.844ZM54.046 17.902C54.299 17.84 54.498 17.502 54.792 17.458H54.823C54.8038 17.5983 54.735 17.727 54.6289 17.8208C54.5228 17.9146 54.3866 17.9672 54.245 17.969C54.1725 17.9732 54.1012 17.9483 54.047 17.9L54.046 17.902ZM53.007 17.302C53.078 17.247 53.127 17.352 53.189 17.456C53.289 17.621 53.418 17.785 53.717 17.333L53.65 17.746C53.5553 17.8583 53.4245 17.9343 53.28 17.961C53.028 17.963 53.078 17.423 53.008 17.3L53.007 17.302ZM52.913 16.76L52.935 16.769C52.913 16.884 52.913 17.018 52.771 17.089C52.2152 17.3103 51.6875 17.5966 51.199 17.942C51.6956 17.4493 52.2764 17.0497 52.914 16.762L52.913 16.76ZM73.513 17.675C73.613 17.165 74.002 17.231 74.34 17.115C74.011 17.253 73.531 17.302 73.64 17.782C73.589 17.757 73.518 17.748 73.518 17.676L73.513 17.675ZM74.122 17.64L74.379 17.586L74.339 17.697L74.122 17.64ZM74.81 16.991C74.792 17.118 74.869 17.282 74.686 17.374C74.658 17.26 74.786 17.077 74.814 16.992L74.81 16.991ZM55.21 16.814C54.7386 17.0018 54.2442 17.1259 53.74 17.183C54.2034 17.0095 54.6504 16.7954 55.076 16.543C55.0572 16.505 55.0365 16.4679 55.014 16.432C55.041 16.463 55.062 16.499 55.089 16.532C55.369 16.381 55.649 16.222 55.898 16.062L55.798 15.791L55.989 15.715L55.94 16.035C56.14 15.902 56.34 15.773 56.487 15.653C56.5559 15.631 56.6288 15.6239 56.7007 15.6322C56.7725 15.6405 56.8419 15.6639 56.904 15.701H56.988L56.943 15.737L57.13 15.837C56.908 15.975 56.677 16.103 56.442 16.228L56.336 16.352V16.3C55.985 16.4823 55.6245 16.6455 55.256 16.789C55.456 17.078 55.705 17.277 56.251 16.744C56.224 16.859 56.22 16.993 56.1 17.073C55.9603 17.164 55.8002 17.2187 55.634 17.232C55.393 17.232 55.3 17.033 55.21 16.815V16.814ZM74.819 16.965C74.8186 16.9739 74.8169 16.9826 74.814 16.991C74.815 16.983 74.817 16.974 74.819 16.966V16.965ZM73.891 16.495C73.842 16.646 73.944 16.779 73.842 16.939C73.616 16.917 73.727 16.584 73.891 16.5V16.495ZM74.171 16.273C74.104 15.873 74.584 15.989 74.717 15.945C74.73 16.057 74.171 16.025 74.388 16.336L74.171 16.273ZM47.354 16.3L47.421 16.257C47.4079 16.2716 47.3962 16.2873 47.386 16.304L47.354 16.3ZM47.603 16.158C47.5407 16.1882 47.4799 16.2216 47.421 16.258C47.4669 16.2036 47.5301 16.1665 47.6 16.153L47.603 16.158ZM74.939 15.847C75.046 15.552 75.1044 15.2417 75.112 14.928C75.1909 15.2646 75.1757 15.6165 75.068 15.945C75.01 15.923 74.939 15.909 74.939 15.842V15.847ZM54.691 15.9C54.7148 15.8855 54.7403 15.8741 54.767 15.866C54.7427 15.882 54.7173 15.8964 54.691 15.909V15.9ZM55.402 15.593C55.2156 15.734 54.9977 15.8274 54.767 15.865C54.985 15.719 55.231 15.43 55.4 15.589L55.402 15.593ZM74.255 15.729C74.1921 15.7009 74.1215 15.6952 74.055 15.713C74.1474 15.6531 74.226 15.5742 74.2857 15.4817C74.3453 15.3891 74.3846 15.2849 74.401 15.176L74.139 15.207C74.085 14.865 74.556 14.883 74.556 14.527L74.321 14.479C74.521 14.421 74.592 14.239 74.676 14.066L74.684 14.055C74.6819 14.0602 74.6802 14.0655 74.679 14.071C74.741 14.158 74.925 14.13 74.921 14.256C74.286 14.469 74.921 14.767 74.703 15.029L74.788 14.989L74.464 15.402C74.526 15.442 74.681 15.411 74.681 15.549C74.591 15.714 74.499 15.757 74.41 15.757C74.3571 15.7539 74.3048 15.7431 74.255 15.725V15.729ZM74.277 14.509L74.166 14.478L74.304 14.509H74.277ZM57.494 14.35C57.627 14.274 57.783 14.301 57.902 14.23L57.64 14.497L57.494 14.35ZM60.168 14.023C60.151 14.0344 60.1329 14.0441 60.114 14.052L60.168 14.023ZM74.686 14.043L74.681 14.05C74.681 14.05 74.684 14.044 74.686 14.044V14.043ZM61.234 13.274V13.305C61.353 13.805 60.572 13.823 60.169 14.022C60.4 13.871 60.76 13.341 61.233 13.275L61.234 13.274ZM70.619 13.083L70.561 13.057L70.761 13.11L70.619 13.083ZM60.851 11.73L61.562 12.13L61.262 12.347L60.851 11.73ZM58.586 11.49L58.626 11.433C58.613 11.464 58.586 11.49 58.586 11.533V11.49ZM65.079 10.962L65.679 10.873C65.7627 10.8381 65.8537 10.8244 65.944 10.833L65.678 10.873C65.451 10.979 65.354 11.259 65.178 11.379L65.079 10.962ZM63.572 4.89C63.511 4.89 63.511 4.822 63.511 4.779C63.875 4.868 64.004 4.423 64.177 4.135C64.022 4.446 64.022 4.788 63.577 4.89H63.572ZM64.249 4.579C64.3116 4.53734 64.3882 4.52224 64.462 4.537C64.5136 4.54578 64.5666 4.54131 64.616 4.524C64.5859 4.57072 64.5456 4.61001 64.4982 4.63894C64.4507 4.66786 64.3973 4.68566 64.342 4.691C64.282 4.691 64.24 4.659 64.249 4.579V4.579ZM63.178 4.535L63.511 4.348V4.605C63.4023 4.57195 63.2908 4.54852 63.178 4.535V4.535ZM64.617 4.522H64.611H64.617ZM65.51 3.794C65.63 3.785 65.576 3.932 65.603 3.985L65.994 3.685L65.95 3.761C66.05 3.674 66.13 3.716 66.216 3.761C66.34 3.823 66.466 3.886 66.63 3.549C66.75 3.549 66.684 3.713 66.75 3.762C66.5804 3.81817 66.4378 3.93545 66.35 4.091V3.882C66.05 3.909 65.994 4.313 65.715 4.282L65.786 4.042C65.586 4.042 65.43 4.215 65.286 4.362C65.395 4.2 65.168 4 65.51 3.793V3.794ZM63.71 4.153L63.795 4.113L63.71 4.344V4.153ZM64.874 4.264L64.861 4.078C65.088 4.26 65.145 3.767 65.239 3.767C65.185 3.884 65.201 4.267 64.932 4.267C64.9113 4.26771 64.8905 4.26637 64.87 4.263L64.874 4.264ZM66.4 4.117C66.3975 4.10851 66.3975 4.09949 66.4 4.091V4.117ZM64.032 3.828C64.0563 3.78575 64.0931 3.75204 64.1373 3.73146C64.1815 3.71088 64.231 3.70443 64.279 3.713C64.308 3.71522 64.337 3.71522 64.366 3.713C64.2673 3.76388 64.1638 3.80475 64.057 3.835C64.0493 3.83411 64.0418 3.83174 64.035 3.828H64.032ZM66.812 3.748H66.842H66.812ZM64.4 3.7C64.3899 3.70294 64.3795 3.70494 64.369 3.706C64.379 3.7027 64.3895 3.70068 64.4 3.7V3.7ZM65.292 3.451C65.5656 3.34795 65.8629 3.32505 66.149 3.385H66.127C65.8617 3.40673 65.6011 3.46808 65.354 3.567C65.292 3.571 65.292 3.509 65.292 3.455V3.451Z" fill="#605E5E"/>
</svg>
