<svg width="1920" height="1080" viewBox="0 0 1920 1080" fill="none" xmlns="http://www.w3.org/2000/svg">
<g clip-path="url(#clip0_981_6368)">
<path d="M2016.67 408.736C1671.47 683.805 1301.97 879.188 983.69 972.744C824.546 1019.52 678.266 1040.83 554.259 1033.94C430.261 1027.06 328.62 992.009 258.571 926.146C188.522 860.283 156.554 769.712 158.869 662.181C161.183 554.642 197.789 430.218 264.788 296.8C398.783 29.9677 654.246 -272.631 999.451 -547.7C1344.66 -822.769 1714.15 -1018.15 2032.43 -1111.71C2191.58 -1158.49 2337.86 -1179.79 2461.86 -1172.91C2585.86 -1166.03 2687.5 -1130.97 2757.55 -1065.11C2827.6 -999.248 2859.57 -908.676 2857.25 -801.145C2854.94 -693.606 2818.33 -569.182 2751.33 -435.764C2617.34 -168.932 2361.88 133.667 2016.67 408.736Z" stroke="white" stroke-width="2.5"/>
<path d="M2049.54 237.514C1637.9 433.466 1224.04 547.415 887.721 573.273C719.559 586.202 570.851 577.102 451.526 545.264C332.206 513.428 242.376 458.891 191.734 381.001C141.092 303.112 134.304 209.044 165.608 105.507C196.914 1.96427 266.291 -110.95 367.802 -226.392C570.819 -457.272 902.199 -698.077 1313.84 -894.03C1725.48 -1089.98 2139.34 -1203.93 2475.66 -1229.79C2643.82 -1242.72 2792.53 -1233.62 2911.85 -1201.78C3031.17 -1169.94 3121 -1115.41 3171.64 -1037.52C3222.28 -959.628 3229.07 -865.561 3197.77 -762.023C3166.46 -658.481 3097.09 -545.567 2995.58 -430.124C2792.56 -199.245 2461.18 41.5609 2049.54 237.514Z" stroke="white" stroke-width="2.5"/>
</g>
<defs>
<clipPath id="clip0_981_6368">
<rect width="1920" height="1080" fill="white"/>
</clipPath>
</defs>
</svg>
