<svg width="90" height="22" viewBox="0 0 90 22" fill="none" xmlns="http://www.w3.org/2000/svg">
<path fill-rule="evenodd" clip-rule="evenodd" d="M74.7958 4.61629C74.7958 3.73518 75.5245 3 76.3986 3C77.272 3 78 3.73449 78 4.61629C78 5.47676 77.272 6.23259 76.3986 6.23259C75.5245 6.23259 74.7965 5.47676 74.7965 4.61629H74.7958ZM72.8821 13.8294C72.8821 17.292 70.2605 20 67.0984 20C65.2881 20 63.9149 19.2442 63.0415 18.0058V19.6854H60.5239V3.29393H63.0415V9.63245C63.9149 8.41472 65.2888 7.65958 67.0984 7.65958C70.2605 7.68023 72.8821 10.3456 72.8821 13.8294ZM44.3376 19.6847H41.8407V18.0058C40.9673 19.2442 39.5934 20 37.7838 20C34.6217 20 32 17.3133 32 13.8294C32 10.3463 34.6217 7.65958 37.7838 7.65958C39.5941 7.65958 40.9673 8.41472 41.8407 9.63245V7.97417H44.3376V19.6847ZM41.82 13.8294C41.82 11.6473 40.2386 10.073 38.1581 10.073C36.0776 10.073 34.4969 11.6466 34.4969 13.8294C34.4969 16.0116 36.0776 17.5859 38.1581 17.5859C40.2386 17.5859 41.82 16.0123 41.82 13.8294ZM57.5906 19.6847V7.97485H55.0938V14.228C55.0938 16.6208 53.7833 17.6072 52.1391 17.6072C50.5584 17.6072 49.5388 16.6834 49.5388 14.8999V7.97485H47.042V15.1725C47.042 18.2157 48.8936 20 51.4946 20C53.076 20 54.3237 19.4121 55.0938 18.1951V19.6847H57.5906ZM66.7034 10.073C68.7839 10.073 70.3646 11.6473 70.3646 13.8294C70.3646 16.0123 68.7839 17.5859 66.7034 17.5859C64.6229 17.5859 63.0415 16.0116 63.0415 13.8294C63.0415 11.6466 64.6229 10.073 66.7034 10.073ZM77.667 7.97417H75.1502V7.97485V19.6847H77.667V7.97417Z" fill="black"/>
<path d="M15.1668 22C9.18201 22 4.33301 17.0985 4.33301 11.0518H8.70785C8.70785 14.6595 11.6171 17.5793 15.1668 17.5793C18.7158 17.5793 21.6257 14.6381 21.6257 11.0518H25.9999C25.9999 17.0992 21.1304 22 15.1668 22Z" fill="#1A68FF"/>
<path d="M0 6.69397H4.33311V11.0732H0V6.69397Z" fill="#B1E0FF"/>
<path d="M17.3537 0C12.5875 0 8.6875 3.91994 8.6875 8.73783V11.0518H13.0617V8.73783C13.0617 6.36031 14.9809 4.4 17.3537 4.4C19.7272 4.4 21.6464 6.3389 21.6464 8.73783V21.9565H26.0001V8.73783C26.0001 3.91994 22.1206 0 17.3537 0Z" fill="#66C1FF"/>
<path d="M87.0746 8L85.5826 10.0898C85.0984 10.7801 84.0905 10.7801 83.6064 10.0898L82.115 8H79.4024L83.2579 13.3432L77 22H79.7317L89.8063 8H87.0746Z" fill="black"/>
<path d="M85.1953 16.0652L87.3072 19.0035H90.0001L86.5516 14.1917L85.1953 16.0652Z" fill="#0098FF"/>
</svg>
