<svg width="1920" height="1080" viewBox="0 0 1920 1080" fill="none" xmlns="http://www.w3.org/2000/svg">
<g clip-path="url(#clip0_983_6384)">
<path d="M142.555 275.222C476.714 530.806 841.965 720.208 1162.32 819.839C1322.49 869.655 1471.38 897.008 1599.5 899.002C1727.62 900.995 1834.88 877.636 1912 826.1C1989.12 774.563 2028.95 699.623 2034.8 608.103C2040.66 516.576 2012.52 408.53 1953.79 290.917C1836.34 55.6929 1596.64 -217.61 1262.48 -473.194C928.326 -728.779 563.075 -918.181 242.725 -1017.81C82.5479 -1067.63 -66.3389 -1094.98 -194.464 -1096.97C-322.578 -1098.97 -429.845 -1075.61 -506.964 -1024.07C-584.083 -972.536 -623.911 -897.596 -629.764 -806.076C-635.617 -714.549 -607.479 -606.503 -548.754 -488.89C-431.305 -253.666 -191.603 19.6368 142.555 275.222Z" stroke="#DEEDF7" stroke-width="2.5"/>
<path d="M121.877 127.589C530.474 320.149 947.633 443.16 1291.74 486.405C1463.81 508.028 1617.53 509.698 1742.75 490.189C1867.97 470.68 1964.54 430.022 2022.57 367.084C2080.6 304.145 2094.8 224.673 2070.51 134.705C2046.23 44.7379 1983.48 -55.6065 1887.86 -160.134C1696.62 -369.184 1374.06 -594.786 965.459 -787.347C556.861 -979.907 139.702 -1102.92 -204.409 -1146.16C-376.47 -1167.79 -530.193 -1169.46 -655.416 -1149.95C-780.639 -1130.44 -877.2 -1089.78 -935.23 -1026.84C-993.26 -963.903 -1007.46 -884.431 -983.176 -794.463C-958.892 -704.496 -896.148 -604.152 -800.527 -499.624C-609.29 -290.574 -286.72 -64.9717 121.877 127.589Z" stroke="#DEEDF7" stroke-width="2.5"/>
</g>
<defs>
<clipPath id="clip0_983_6384">
<rect width="1920" height="1080" fill="white" transform="matrix(-1 0 0 1 1920 0)"/>
</clipPath>
</defs>
</svg>
