<svg width="1920" height="1080" viewBox="0 0 1920 1080" fill="none" xmlns="http://www.w3.org/2000/svg">
<path d="M761.67 593.404C922.264 654.714 1097.77 700.135 1251.64 724.021C1405.66 747.931 1537.35 750.175 1611.09 725.579C1684.83 700.982 1687.43 653.945 1630.96 597.496C1574.54 541.101 1459.38 475.553 1298.79 414.243C1138.19 352.933 962.688 307.512 808.818 283.626C654.796 259.716 523.109 257.472 449.37 282.068C375.63 306.665 373.031 353.702 429.499 410.151C485.912 466.545 601.076 532.094 761.67 593.404Z" stroke="#DEEDF7" stroke-width="2.5"/>
<path d="M751.733 557.826C948.156 604.031 1148.67 633.541 1314.04 643.914C1396.73 649.101 1470.54 649.497 1530.61 644.826C1590.71 640.152 1636.71 630.436 1664.27 615.521C1691.82 600.606 1698.71 581.69 1687.05 560.136C1675.4 538.595 1645.28 514.543 1599.33 489.468C1507.43 439.325 1352.39 385.197 1155.96 338.993C959.541 292.788 759.025 263.278 593.661 252.905C510.969 247.718 437.155 247.322 377.087 251.993C316.982 256.667 270.983 266.383 243.432 281.298C215.881 296.213 208.991 315.129 220.647 336.683C232.296 358.224 262.413 382.276 308.368 407.351C400.268 457.494 555.31 511.622 751.733 557.826Z" stroke="#DEEDF7" stroke-width="2.5"/>
<path d="M1159.33 593.404C998.736 654.714 823.231 700.135 669.36 724.021C515.338 747.931 383.652 750.175 309.912 725.579C236.173 700.982 233.573 653.945 290.042 597.496C346.455 541.101 461.619 475.553 622.213 414.243C782.807 352.933 958.312 307.512 1112.18 283.626C1266.2 259.716 1397.89 257.472 1471.63 282.068C1545.37 306.665 1547.97 353.702 1491.5 410.151C1435.09 466.545 1319.92 532.094 1159.33 593.404Z" stroke="#DEEDF7" stroke-width="2.5"/>
<path d="M1169.27 557.826C972.844 604.031 772.328 633.541 606.964 643.914C524.272 649.101 450.458 649.497 390.39 644.826C330.285 640.152 284.286 630.436 256.735 615.521C229.183 600.606 222.294 581.69 233.95 560.136C245.599 538.595 275.716 514.543 321.671 489.468C413.571 439.325 568.613 385.197 765.036 338.993C961.459 292.788 1161.97 263.278 1327.34 252.905C1410.03 247.718 1483.84 247.322 1543.91 251.993C1604.02 256.667 1650.02 266.383 1677.57 281.298C1705.12 296.213 1712.01 315.129 1700.35 336.683C1688.7 358.224 1658.59 382.276 1612.63 407.351C1520.73 457.494 1365.69 511.622 1169.27 557.826Z" stroke="#DEEDF7" stroke-width="2.5"/>
</svg>
