<svg width="90" height="22" viewBox="0 0 90 22" fill="none" xmlns="http://www.w3.org/2000/svg">
<path fill-rule="evenodd" clip-rule="evenodd" d="M74.7958 4.61629C74.7958 3.73518 75.5245 3 76.3986 3C77.272 3 78 3.73449 78 4.61629C78 5.47676 77.272 6.23259 76.3986 6.23259C75.5245 6.23259 74.7965 5.47676 74.7965 4.61629H74.7958ZM72.8821 13.8294C72.8821 17.292 70.2605 20 67.0984 20C65.2881 20 63.9149 19.2442 63.0415 18.0058V19.6854H60.5239V3.29393H63.0415V9.63245C63.9149 8.41472 65.2888 7.65958 67.0984 7.65958C70.2605 7.68023 72.8821 10.3456 72.8821 13.8294ZM44.3376 19.6847H41.8407V18.0058C40.9673 19.2442 39.5934 20 37.7838 20C34.6217 20 32 17.3133 32 13.8294C32 10.3463 34.6217 7.65958 37.7838 7.65958C39.5941 7.65958 40.9673 8.41472 41.8407 9.63245V7.97417H44.3376V19.6847ZM41.82 13.8294C41.82 11.6473 40.2386 10.073 38.1581 10.073C36.0776 10.073 34.4969 11.6466 34.4969 13.8294C34.4969 16.0116 36.0776 17.5859 38.1581 17.5859C40.2386 17.5859 41.82 16.0123 41.82 13.8294ZM57.5906 19.6847V7.97485H55.0938V14.228C55.0938 16.6208 53.7833 17.6072 52.1391 17.6072C50.5584 17.6072 49.5388 16.6834 49.5388 14.8999V7.97485H47.042V15.1725C47.042 18.2157 48.8936 20 51.4946 20C53.076 20 54.3237 19.4121 55.0938 18.1951V19.6847H57.5906ZM66.7034 10.073C68.7839 10.073 70.3646 11.6473 70.3646 13.8294C70.3646 16.0123 68.7839 17.5859 66.7034 17.5859C64.6229 17.5859 63.0415 16.0116 63.0415 13.8294C63.0415 11.6466 64.6229 10.073 66.7034 10.073ZM77.667 7.97417H75.1502V7.97485V19.6847H77.667V7.97417Z" fill="white"/>
<path fill-rule="evenodd" clip-rule="evenodd" d="M4.33311 6.69397H0V11.0732H4.33311V11.0518C4.33311 17.0986 9.18211 22 15.1669 22C21.1305 22 26 17.0992 26 11.0518H21.6258C21.6258 14.6381 18.7159 17.5793 15.1669 17.5793C11.6172 17.5793 8.70795 14.6596 8.70795 11.0518H4.33311V6.69397Z" fill="white"/>
<path d="M17.3537 0C12.5875 0 8.6875 3.91994 8.6875 8.73783V11.0518H13.0617V8.73783C13.0617 6.36031 14.9809 4.4 17.3537 4.4C19.7272 4.4 21.6464 6.3389 21.6464 8.73783V21.9565H26.0001V8.73783C26.0001 3.91994 22.1206 0 17.3537 0Z" fill="white"/>
<path fill-rule="evenodd" clip-rule="evenodd" d="M85.5826 10.0898L87.0746 8H89.8063L79.7317 22H77L83.2579 13.3432L79.4024 8H82.115L83.6064 10.0898C84.0905 10.7801 85.0984 10.7801 85.5826 10.0898ZM87.3071 19.0035L85.1952 16.0652L86.5516 14.1917L90 19.0035H87.3071Z" fill="white"/>
</svg>
