<svg width="48" height="48" viewBox="0 0 48 48" fill="none" xmlns="http://www.w3.org/2000/svg">
<rect x="6" y="6" width="36" height="36" fill="black" fill-opacity="0.8"/>
<path opacity="0.9" fill-rule="evenodd" clip-rule="evenodd" d="M17.4142 14.5858C16.6332 13.8047 15.3668 13.8047 14.5858 14.5858C13.8047 15.3668 13.8047 16.6332 14.5858 17.4142L21.1716 24L14.5858 30.5858C13.8047 31.3668 13.8047 32.6332 14.5858 33.4142C15.3668 34.1953 16.6332 34.1953 17.4142 33.4142L24 26.8284L30.5858 33.4142C31.3668 34.1953 32.6332 34.1953 33.4142 33.4142C34.1953 32.6332 34.1953 31.3668 33.4142 30.5858L26.8284 24L33.4142 17.4142C34.1953 16.6332 34.1953 15.3668 33.4142 14.5858C32.6332 13.8047 31.3668 13.8047 30.5858 14.5858L24 21.1716L17.4142 14.5858Z" fill="white"/>
</svg>
