<svg width="24" height="24" viewBox="0 0 24 24" fill="none" xmlns="http://www.w3.org/2000/svg">
<path d="M19.6919 19.6898C21.3028 18.0789 19.1659 13.3302 14.9189 9.08321C10.672 4.83625 5.92324 2.69932 4.31232 4.31024C2.70141 5.92115 4.83834 10.6699 9.08529 14.9168C13.3322 19.1638 18.081 21.3007 19.6919 19.6898Z" stroke="#1A68FF" stroke-width="1.3" stroke-linecap="round" stroke-linejoin="round"/>
<path d="M14.9189 14.9168C19.1659 10.6698 21.3028 5.9211 19.6919 4.31019C18.081 2.69928 13.3322 4.83621 9.08529 9.08316C4.83834 13.3301 2.70141 18.0789 4.31232 19.6898C5.92324 21.3007 10.672 19.1637 14.9189 14.9168Z" stroke="#1A68FF" stroke-width="1.3" stroke-linecap="round" stroke-linejoin="round"/>
<path d="M13.0625 12C13.0625 12.5868 12.5868 13.0625 12 13.0625C11.4132 13.0625 10.9375 12.5868 10.9375 12C10.9375 11.4132 11.4132 10.9375 12 10.9375C12.5868 10.9375 13.0625 11.4132 13.0625 12Z" fill="#1A68FF" stroke="#1A68FF" stroke-width="0.125"/>
</svg>
