<svg width="24" height="24" viewBox="0 0 24 24" fill="none" xmlns="http://www.w3.org/2000/svg">
<path d="M12 21.75V8.25" stroke="#1A68FF" stroke-width="1.3" stroke-linecap="round" stroke-linejoin="round"/>
<path d="M12 14.25L7.5 12" stroke="#1A68FF" stroke-width="1.3" stroke-linecap="round" stroke-linejoin="round"/>
<path d="M12 12L16.5 9.75" stroke="#1A68FF" stroke-width="1.3" stroke-linecap="round" stroke-linejoin="round"/>
<path d="M12.422 16.9875C13.1101 17.4562 13.8882 17.7765 14.7069 17.9282C15.5255 18.0798 16.3667 18.0594 17.177 17.8683C17.9873 17.6772 18.749 17.3195 19.4136 16.818C20.0782 16.3166 20.6311 15.6823 21.0373 14.9555C21.4434 14.2288 21.6939 13.4255 21.7727 12.5967C21.8515 11.7678 21.757 10.9317 21.4952 10.1414C21.2333 9.35112 20.8099 8.62397 20.2517 8.00621C19.6936 7.38845 19.013 6.8936 18.2533 6.55314C18.0865 6.46927 17.9539 6.3301 17.8783 6.15939C17.3923 5.00154 16.5751 4.01302 15.5294 3.31785C14.4836 2.62268 13.2559 2.25183 12.0002 2.25183C10.7444 2.25183 9.51669 2.62268 8.47096 3.31785C7.42522 4.01302 6.60807 5.00154 6.12204 6.15939C6.04641 6.3301 5.91387 6.46927 5.74704 6.55314C4.9873 6.8936 4.30672 7.38845 3.74859 8.00621C3.19047 8.62397 2.76702 9.35112 2.50517 10.1414C2.24332 10.9317 2.14881 11.7678 2.22764 12.5967C2.30648 13.4255 2.55693 14.2288 2.96308 14.9555C3.36923 15.6823 3.92218 16.3166 4.58676 16.818C5.25134 17.3195 6.01301 17.6772 6.82332 17.8683C7.63363 18.0594 8.47485 18.0798 9.29347 17.9282C10.1121 17.7765 10.8902 17.4562 11.5783 16.9875C11.7036 16.9052 11.8503 16.8614 12.0002 16.8614C12.1501 16.8614 12.2967 16.9052 12.422 16.9875Z" stroke="#1A68FF" stroke-width="1.3" stroke-linecap="round" stroke-linejoin="round"/>
</svg>
